# xmcd
#
# Track frame offsets: 
#        150
#        8064
#        11031
#        12596
#        16629
#        19855
#        24589
#        27363
#        29881
#        40916
#        52418
#        59110
#        62304
#        63750
#        66353
#        67939
#        70428
#        91301
#        92561
#        97871
#        110524
#        140861
#        142605
#        149777
#        154117
#        160036
#        163105
#        188704
#        196538
#        204930
#        205511
#        208509
#        211630
#        222772
#        232567
#        249093
#        259099
#        266356
#        279167
#        289252
#        292230
#        308359
#        324088
#        347608
#        350324
#
# Disc length: 4759 seconds
#
# Revision: 0
# Processed by: cddbd v1.5.2PL0 Copyright (c) Steve Scherf et al.
# Submitted via: ExactAudioCopy v0.95b3
#
DISCID=7912952d
DTITLE=Led Zeppelin  - Studio Sessions Ultimate [Disc 3] 
DYEAR=1900
DGENRE=
TTITLE0=I Wanna Be Her Man
TTITLE1=Untitled Instrumental
TTITLE2=Untitled Instrumental
TTITLE3=Untitled Instrumental
TTITLE4=Untitled Instrumental
TTITLE5=Untitled Instrumental
TTITLE6=Untitled Instrumental
TTITLE7=Untitled Instrumental
TTITLE8=Untitled Instrumental
TTITLE9=Untitled Instrumental
TTITLE10=Untitled Instrumental
TTITLE11=Untitled Instrumental
TTITLE12=Untitled Instrumental
TTITLE13=Untitled Instrumental
TTITLE14=Untitled Instrumental
TTITLE15=Untitled Instrumental
TTITLE16=Untitled Instrumental
TTITLE17=Untitled Instrumental
TTITLE18=Untitled Instrumental
TTITLE19=Hey, Hey What Can I Do
TTITLE20=Untitled Instrumental
TTITLE21=Untitled Instrumental
TTITLE22=Untitled Instrumental
TTITLE23=Untitled Instrumental
TTITLE24=Untitled Instrumental
TTITLE25=Untitled Instrumental
TTITLE26=Down By The Seaside
TTITLE27=Unknown Song
TTITLE28=Untitled Instrumental
TTITLE29=Unknown Song
TTITLE30=Unknown Song
TTITLE31=Unknown Song
TTITLE32=Untitled Instrumental
TTITLE33=Untitled Instrumental
TTITLE34=Poor Tom
TTITLE35=Untitled Instrumental
TTITLE36=Untitled Instrumental
TTITLE37=That's The Way
TTITLE38=That's The Way
TTITLE39=That's The Way
TTITLE40=That's The Way
TTITLE41=Bron-Yr-Aur
TTITLE42=Untitled Instrumental
TTITLE43=Untitled Instrumental
TTITLE44=Untitled Instrumental
EXTD=
EXTT0=
EXTT1=
EXTT2=
EXTT3=
EXTT4=
EXTT5=
EXTT6=
EXTT7=
EXTT8=
EXTT9=
EXTT10=
EXTT11=
EXTT12=
EXTT13=
EXTT14=
EXTT15=
EXTT16=
EXTT17=
EXTT18=
EXTT19=
EXTT20=
EXTT21=
EXTT22=
EXTT23=
EXTT24=
EXTT25=
EXTT26=
EXTT27=
EXTT28=
EXTT29=
EXTT30=
EXTT31=
EXTT32=
EXTT33=
EXTT34=
EXTT35=
EXTT36=
EXTT37=
EXTT38=
EXTT39=
EXTT40=
EXTT41=
EXTT42=
EXTT43=
EXTT44=
PLAYORDER=
